<svg width="56" height="56" viewBox="0 0 56 56" fill="none" xmlns="http://www.w3.org/2000/svg">
<rect width="56" height="56" rx="8" fill="#9F9FF8" fill-opacity="0.1"/>
<path fill-rule="evenodd" clip-rule="evenodd" d="M28.0694 13.6666H27.9307C26.732 13.6666 25.7334 13.6666 24.9414 13.7733C24.104 13.8853 23.348 14.1333 22.7414 14.74C22.1334 15.348 21.8854 16.104 21.7734 16.94C21.6974 17.5093 21.6747 18.868 21.6694 20.0333C18.9734 20.1226 17.3534 20.4373 16.2294 21.5626C14.6667 23.124 14.6667 25.6386 14.6667 30.6666C14.6667 35.6946 14.6667 38.2093 16.2294 39.7706C17.792 41.332 20.3054 41.3333 25.3334 41.3333H30.6667C35.6947 41.3333 38.2094 41.3333 39.7707 39.7706C41.332 38.208 41.3334 35.6946 41.3334 30.6666C41.3334 25.6386 41.3334 23.124 39.7707 21.5626C38.6467 20.4373 37.0267 20.1226 34.3307 20.0346C34.3254 18.868 34.304 17.5093 34.2267 16.9413C34.1147 16.104 33.8667 15.348 33.2587 14.7413C32.652 14.1333 31.896 13.8853 31.0587 13.7733C30.2667 13.6666 29.2667 13.6666 28.0694 13.6666ZM32.3307 20.0026C32.324 18.8733 32.3054 17.6586 32.2454 17.2066C32.1614 16.592 32.0187 16.328 31.8454 16.1546C31.672 15.9813 31.408 15.8386 30.792 15.7546C30.1494 15.6693 29.2854 15.6666 28 15.6666C26.7147 15.6666 25.8507 15.6693 25.2067 15.756C24.592 15.8386 24.328 15.9813 24.1547 16.156C23.9814 16.3306 23.8387 16.592 23.7547 17.2066C23.6947 17.66 23.6747 18.8733 23.6694 20.0026C24.192 20 24.7467 19.9991 25.3334 20H30.6667C31.2551 20 31.8098 20.0008 32.3307 20.0026ZM28 24.3333C28.2652 24.3333 28.5196 24.4386 28.7071 24.6262C28.8947 24.8137 29 25.0681 29 25.3333V25.3466C30.452 25.712 31.6667 26.8573 31.6667 28.444C31.6667 28.7092 31.5613 28.9635 31.3738 29.1511C31.1863 29.3386 30.9319 29.444 30.6667 29.444C30.4015 29.444 30.1471 29.3386 29.9596 29.1511C29.772 28.9635 29.6667 28.7092 29.6667 28.444C29.6667 27.932 29.0987 27.2226 28 27.2226C26.9014 27.2226 26.3334 27.932 26.3334 28.444C26.3334 28.956 26.9014 29.6666 28 29.6666C29.8467 29.6666 31.6667 30.9466 31.6667 32.8893C31.6667 34.476 30.452 35.62 29 35.9866V36C29 36.2652 28.8947 36.5195 28.7071 36.7071C28.5196 36.8946 28.2652 37 28 37C27.7348 37 27.4804 36.8946 27.2929 36.7071C27.1054 36.5195 27 36.2652 27 36V35.9866C25.548 35.6213 24.3334 34.476 24.3334 32.8893C24.3334 32.6241 24.4387 32.3697 24.6262 32.1822C24.8138 31.9946 25.0681 31.8893 25.3334 31.8893C25.5986 31.8893 25.8529 31.9946 26.0405 32.1822C26.228 32.3697 26.3334 32.6241 26.3334 32.8893C26.3334 33.4013 26.9014 34.1106 28 34.1106C29.0987 34.1106 29.6667 33.4013 29.6667 32.8893C29.6667 32.3773 29.0987 31.6666 28 31.6666C26.1534 31.6666 24.3334 30.3866 24.3334 28.444C24.3334 26.8573 25.548 25.712 27 25.3466V25.3333C27 25.0681 27.1054 24.8137 27.2929 24.6262C27.4804 24.4386 27.7348 24.3333 28 24.3333Z" fill="#9F9FF8"/>
</svg>
