<svg width="56" height="56" viewBox="0 0 56 56" fill="none" xmlns="http://www.w3.org/2000/svg">
<rect width="56" height="56" rx="8" fill="#92BFFF" fill-opacity="0.1"/>
<path d="M33.0001 28C31.7151 28 30.4726 27.4263 29.5001 26.385C28.5544 25.3694 27.9769 24.015 27.8751 22.5725C27.7663 21.0338 28.2357 19.6188 29.1963 18.5875C30.1569 17.5563 31.5001 17 33.0001 17C34.4894 17 35.8363 17.5662 36.7938 18.595C37.7607 19.6337 38.2313 21.0462 38.1226 22.5719C38.0182 24.0162 37.4413 25.37 36.4976 26.3844C35.5276 27.4262 34.2857 28 33.0001 28ZM41.2394 39H24.7613C24.4964 39.0014 24.2346 38.942 23.9963 38.8264C23.7579 38.7108 23.5492 38.542 23.3863 38.3331C23.2135 38.1066 23.0942 37.844 23.0372 37.5649C22.9803 37.2857 22.9872 36.9973 23.0576 36.7213C23.5838 34.6081 24.8876 32.8556 26.8276 31.6537C28.5494 30.5875 30.7413 30 33.0001 30C35.3032 30 37.4376 30.5625 39.1694 31.6281C41.1138 32.8237 42.4194 34.5863 42.9432 36.725C43.0126 37.0013 43.0188 37.2897 42.9612 37.5687C42.9037 37.8477 42.7838 38.11 42.6107 38.3363C42.4479 38.5442 42.2397 38.7121 42.002 38.8272C41.7644 38.9422 41.5035 39.0014 41.2394 39ZM21.1876 28.25C18.9882 28.25 17.0544 26.205 16.8751 23.6919C16.7863 22.4044 17.1876 21.2137 18.0001 20.3406C18.8038 19.4762 19.9376 19 21.1876 19C22.4376 19 23.5625 19.4788 24.3707 20.3481C25.1894 21.2281 25.5894 22.4162 25.4957 23.6931C25.3163 26.2056 23.3832 28.25 21.1876 28.25ZM25.2913 30.2156C24.1919 29.6781 22.765 29.4094 21.1882 29.4094C19.3469 29.4094 17.5588 29.8894 16.1526 30.7606C14.5582 31.75 13.4857 33.1906 13.0526 34.93C12.9892 35.1802 12.9832 35.4415 13.035 35.6943C13.0869 35.9471 13.1952 36.1849 13.3519 36.39C13.5006 36.5809 13.6912 36.7352 13.9088 36.8409C14.1265 36.9467 14.3655 37.0011 14.6076 37H21.5451C21.6621 37 21.7755 36.9589 21.8654 36.8838C21.9553 36.8088 22.016 36.7046 22.0369 36.5894C22.0438 36.55 22.0526 36.5106 22.0626 36.4719C22.5926 34.3431 23.8344 32.5444 25.6694 31.2331C25.7369 31.1845 25.7912 31.1198 25.8274 31.0448C25.8635 30.9699 25.8804 30.8871 25.8765 30.804C25.8726 30.7209 25.848 30.6401 25.805 30.5689C25.7619 30.4977 25.7018 30.4383 25.6301 30.3962C25.5319 30.3387 25.4194 30.2781 25.2913 30.2156Z" fill="#92BFFF"/>
</svg>
