<svg width="16" height="18" viewBox="0 0 16 18" fill="none" xmlns="http://www.w3.org/2000/svg">
<path d="M1.33301 8.16406H14.6663M7.99968 16.4974V0.664062M1.33301 8.37406C1.33301 14.7799 7.09801 17.0299 7.90551 17.3141C7.96829 17.3363 8.03106 17.3363 8.09384 17.3141C8.90301 17.0391 14.6663 14.8457 14.6663 8.3749V2.58406C14.6665 2.50959 14.6417 2.4372 14.596 2.37845C14.5502 2.31969 14.4861 2.27796 14.4138 2.2599L8.08051 0.674063C8.02744 0.660797 7.97191 0.660797 7.91884 0.674063L1.58551 2.2599C1.51326 2.27796 1.44913 2.31969 1.40337 2.37845C1.3576 2.4372 1.33283 2.50959 1.33301 2.58406V8.37406Z" stroke="white" stroke-miterlimit="10" stroke-linecap="round" stroke-linejoin="round"/>
</svg>
