<svg width="20" height="20" viewBox="0 0 20 20" fill="none" xmlns="http://www.w3.org/2000/svg">
<path fill-rule="evenodd" clip-rule="evenodd" d="M10 6.875C9.1712 6.875 8.37634 7.20424 7.79029 7.79029C7.20424 8.37634 6.875 9.1712 6.875 10C6.875 10.8288 7.20424 11.6237 7.79029 12.2097C8.37634 12.7958 9.1712 13.125 10 13.125C10.8288 13.125 11.6237 12.7958 12.2097 12.2097C12.7958 11.6237 13.125 10.8288 13.125 10C13.125 9.1712 12.7958 8.37634 12.2097 7.79029C11.6237 7.20424 10.8288 6.875 10 6.875ZM8.125 10C8.125 9.50272 8.32254 9.02581 8.67417 8.67417C9.02581 8.32254 9.50272 8.125 10 8.125C10.4973 8.125 10.9742 8.32254 11.3258 8.67417C11.6775 9.02581 11.875 9.50272 11.875 10C11.875 10.4973 11.6775 10.9742 11.3258 11.3258C10.9742 11.6775 10.4973 11.875 10 11.875C9.50272 11.875 9.02581 11.6775 8.67417 11.3258C8.32254 10.9742 8.125 10.4973 8.125 10Z" fill="white"/>
<path fill-rule="evenodd" clip-rule="evenodd" d="M9.97882 1.03906C9.60798 1.03906 9.29882 1.03906 9.04548 1.05573C8.78649 1.06616 8.53105 1.11967 8.28965 1.21406C8.01153 1.32914 7.75879 1.49787 7.54589 1.71063C7.33298 1.9234 7.16408 2.17601 7.04882 2.45406C6.92798 2.74573 6.89548 3.05406 6.88215 3.38906C6.88066 3.51155 6.84816 3.63166 6.78769 3.73818C6.72721 3.84471 6.64073 3.93418 6.53632 3.99823C6.42867 4.05683 6.30792 4.08719 6.18536 4.08646C6.0628 4.08573 5.94243 4.05394 5.83548 3.99406C5.53882 3.8374 5.25548 3.71156 4.94215 3.6699C4.64377 3.63065 4.34058 3.65056 4.0499 3.72848C3.75921 3.80641 3.48672 3.94083 3.24798 4.12406C3.04581 4.28613 2.87204 4.48073 2.73382 4.6999C2.59215 4.91156 2.43715 5.17906 2.25215 5.4999L2.23132 5.53656C2.04548 5.8574 1.89132 6.1249 1.77965 6.35323C1.66298 6.59156 1.57132 6.82656 1.53798 7.08656C1.45848 7.68905 1.62155 8.29845 1.99132 8.78073C2.18382 9.03156 2.43465 9.21406 2.71798 9.3924C2.82351 9.45497 2.91143 9.54329 2.97352 9.6491C3.03561 9.75492 3.06983 9.87475 3.07298 9.9974C3.06983 10.12 3.03561 10.2399 2.97352 10.3457C2.91143 10.4515 2.82351 10.5398 2.71798 10.6024C2.43465 10.7807 2.18465 10.9632 1.99132 11.2141C1.80808 11.4528 1.67366 11.7253 1.59574 12.016C1.51781 12.3067 1.4979 12.6098 1.53715 12.9082C1.57132 13.1682 1.66215 13.4032 1.77882 13.6416C1.89132 13.8699 2.04548 14.1374 2.23132 14.4582L2.25215 14.4949C2.43715 14.8157 2.59215 15.0832 2.73382 15.2949C2.88132 15.5141 3.03965 15.7116 3.24798 15.8699C3.48666 16.0533 3.75912 16.1878 4.04981 16.2659C4.3405 16.344 4.64372 16.364 4.94215 16.3249C5.25548 16.2832 5.53882 16.1582 5.83548 16.0007C5.94232 15.941 6.06255 15.9093 6.18495 15.9086C6.30735 15.9078 6.42794 15.9381 6.53548 15.9966C6.64075 16.0598 6.72799 16.1491 6.78884 16.2557C6.84969 16.3624 6.88211 16.4829 6.88298 16.6057C6.89548 16.9407 6.92798 17.2491 7.04965 17.5407C7.16472 17.8189 7.33346 18.0716 7.54622 18.2845C7.75898 18.4974 8.0116 18.6663 8.28965 18.7816C8.53132 18.8816 8.78132 18.9207 9.04548 18.9382C9.29882 18.9557 9.60798 18.9557 9.97882 18.9557H10.0205C10.3913 18.9557 10.7005 18.9557 10.9538 18.9391C11.2188 18.9207 11.468 18.8816 11.7097 18.7807C11.9878 18.6657 12.2405 18.4969 12.4534 18.2842C12.6663 18.0714 12.8352 17.8188 12.9505 17.5407C13.0713 17.2491 13.1038 16.9407 13.1172 16.6057C13.1185 16.4831 13.1509 16.3628 13.2114 16.2561C13.2719 16.1495 13.3585 16.0599 13.463 15.9957C13.5707 15.9373 13.6915 15.907 13.814 15.9079C13.9366 15.9088 14.0569 15.9407 14.1638 16.0007C14.4605 16.1574 14.7438 16.2832 15.0572 16.3241C15.6596 16.4036 16.269 16.2405 16.7513 15.8707C16.9597 15.7107 17.118 15.5141 17.2655 15.2949C17.4072 15.0832 17.5622 14.8157 17.7472 14.4949L17.768 14.4582C17.9538 14.1374 18.108 13.8699 18.2197 13.6416C18.3363 13.4032 18.428 13.1674 18.4613 12.9082C18.5408 12.3057 18.3778 11.6963 18.008 11.2141C17.8155 10.9632 17.5647 10.7807 17.2813 10.6024C17.1758 10.5398 17.0879 10.4515 17.0258 10.3457C16.9637 10.2399 16.9295 10.12 16.9263 9.9974C16.9263 9.76573 17.053 9.53573 17.2813 9.3924C17.5647 9.21406 17.8147 9.03156 18.008 8.78073C18.1912 8.54199 18.3256 8.2695 18.4036 7.97882C18.4815 7.68813 18.5014 7.38494 18.4622 7.08656C18.4229 6.83039 18.3412 6.58256 18.2205 6.35323C18.0782 6.07638 17.9273 5.80402 17.768 5.53656L17.7472 5.4999C17.5949 5.22829 17.4343 4.9615 17.2655 4.6999C17.1272 4.48103 16.9534 4.28671 16.7513 4.1249C16.5126 3.94151 16.2402 3.80695 15.9495 3.72888C15.6588 3.65081 15.3556 3.63076 15.0572 3.6699C14.7438 3.71156 14.4605 3.83656 14.1638 3.99406C14.057 4.05379 13.9368 4.0855 13.8144 4.08623C13.692 4.08695 13.5714 4.05668 13.4638 3.99823C13.3591 3.93438 13.2723 3.845 13.2115 3.73846C13.1507 3.63192 13.118 3.51171 13.1163 3.38906C13.1038 3.05406 13.0713 2.74573 12.9496 2.45406C12.8346 2.17594 12.6658 1.92321 12.4531 1.7103C12.2403 1.4974 11.9877 1.32849 11.7097 1.21323C11.468 1.11323 11.218 1.07406 10.9538 1.05656C10.7005 1.03906 10.3913 1.03906 10.0205 1.03906H9.97882ZM8.76798 2.36823C8.83215 2.34156 8.92965 2.3174 9.13048 2.30323C9.33632 2.28906 9.60298 2.28906 9.99965 2.28906C10.3963 2.28906 10.663 2.28906 10.8688 2.30323C11.0697 2.3174 11.1671 2.34156 11.2313 2.36823C11.4872 2.47406 11.6896 2.67656 11.7955 2.9324C11.8288 3.0124 11.8563 3.13823 11.8672 3.43573C11.8921 4.09573 12.233 4.73156 12.838 5.08073C13.443 5.4299 14.1638 5.4074 14.748 5.09906C15.0113 4.9599 15.1338 4.92073 15.2205 4.9099C15.4943 4.87372 15.7713 4.94775 15.9905 5.11573C16.0455 5.15823 16.1155 5.23073 16.228 5.3974C16.3438 5.56906 16.4771 5.7999 16.6755 6.14323C16.8738 6.48656 17.0063 6.71823 17.0972 6.90323C17.1863 7.08406 17.2138 7.18073 17.2221 7.2499C17.2583 7.5237 17.1843 7.80067 17.0163 8.0199C16.963 8.08906 16.868 8.17573 16.6163 8.33406C16.0563 8.68573 15.6763 9.29906 15.6763 9.9974C15.6763 10.6957 16.0563 11.3091 16.6163 11.6607C16.868 11.8191 16.963 11.9057 17.0163 11.9749C17.1847 12.1941 17.258 12.4707 17.2221 12.7449C17.2138 12.8141 17.1855 12.9116 17.0972 13.0916C17.0063 13.2774 16.8738 13.5082 16.6755 13.8516C16.4771 14.1949 16.343 14.4257 16.228 14.5974C16.1155 14.7641 16.0455 14.8366 15.9905 14.8791C15.7713 15.047 15.4943 15.1211 15.2205 15.0849C15.1338 15.0741 15.0122 15.0349 14.748 14.8957C14.1646 14.5874 13.443 14.5641 12.838 14.9132C12.233 15.2624 11.8921 15.8991 11.8672 16.5591C11.8563 16.8566 11.8288 16.9824 11.7955 17.0624C11.7431 17.1889 11.6664 17.3038 11.5696 17.4006C11.4728 17.4974 11.3578 17.5742 11.2313 17.6266C11.1671 17.6532 11.0697 17.6774 10.8688 17.6916C10.663 17.7057 10.3963 17.7057 9.99965 17.7057C9.60298 17.7057 9.33632 17.7057 9.13048 17.6916C8.92965 17.6774 8.83215 17.6532 8.76798 17.6266C8.64149 17.5742 8.52655 17.4974 8.42974 17.4006C8.33294 17.3038 8.25617 17.1889 8.20382 17.0624C8.17048 16.9824 8.14298 16.8566 8.13215 16.5591C8.10715 15.8991 7.76632 15.2632 7.16132 14.9141C6.55632 14.5649 5.83548 14.5874 5.25132 14.8957C4.98798 15.0349 4.86548 15.0741 4.77882 15.0849C4.50501 15.1211 4.22805 15.047 4.00882 14.8791C3.95382 14.8366 3.88382 14.7641 3.77132 14.5974C3.61455 14.3534 3.46531 14.1047 3.32382 13.8516C3.12548 13.5082 2.99298 13.2766 2.90215 13.0916C2.81298 12.9107 2.78548 12.8141 2.77715 12.7449C2.74097 12.4711 2.81501 12.1941 2.98298 11.9749C3.03632 11.9057 3.13132 11.8191 3.38298 11.6607C3.94298 11.3091 4.32298 10.6957 4.32298 9.9974C4.32298 9.29906 3.94298 8.68573 3.38298 8.33406C3.13132 8.17573 3.03632 8.08906 2.98298 8.0199C2.81501 7.80067 2.74097 7.5237 2.77715 7.2499C2.78548 7.18073 2.81382 7.08323 2.90215 6.90323C2.99298 6.7174 3.12548 6.48656 3.32382 6.14323C3.52215 5.7999 3.65632 5.56906 3.77132 5.3974C3.88382 5.23073 3.95382 5.15823 4.00882 5.11573C4.22805 4.94775 4.50501 4.87372 4.77882 4.9099C4.86548 4.92073 4.98715 4.9599 5.25132 5.09906C5.83465 5.4074 6.55632 5.43073 7.16132 5.08073C7.76632 4.73156 8.10715 4.09573 8.13215 3.43573C8.14298 3.13823 8.17048 3.0124 8.20382 2.9324C8.30965 2.67656 8.51215 2.47406 8.76798 2.36823Z" fill="white"/>
</svg>
