<svg width="16" height="16" viewBox="0 0 16 16" fill="none" xmlns="http://www.w3.org/2000/svg">
<path d="M1.33301 2.16927C1.33301 1.94826 1.42081 1.7363 1.57709 1.58002C1.73337 1.42374 1.94533 1.33594 2.16634 1.33594H5.49967C5.72069 1.33594 5.93265 1.42374 6.08893 1.58002C6.24521 1.7363 6.33301 1.94826 6.33301 2.16927V6.33594C6.33301 6.55695 6.24521 6.76891 6.08893 6.92519C5.93265 7.08147 5.72069 7.16927 5.49967 7.16927H2.16634C1.94533 7.16927 1.73337 7.08147 1.57709 6.92519C1.42081 6.76891 1.33301 6.55695 1.33301 6.33594V2.16927ZM9.66634 2.16927C9.66634 1.94826 9.75414 1.7363 9.91042 1.58002C10.0667 1.42374 10.2787 1.33594 10.4997 1.33594H13.833C14.054 1.33594 14.266 1.42374 14.4223 1.58002C14.5785 1.7363 14.6663 1.94826 14.6663 2.16927V3.83594C14.6663 4.05695 14.5785 4.26891 14.4223 4.42519C14.266 4.58147 14.054 4.66927 13.833 4.66927H10.4997C10.2787 4.66927 10.0667 4.58147 9.91042 4.42519C9.75414 4.26891 9.66634 4.05695 9.66634 3.83594V2.16927ZM1.33301 11.3359C1.33301 11.1149 1.42081 10.903 1.57709 10.7467C1.73337 10.5904 1.94533 10.5026 2.16634 10.5026H5.49967C5.72069 10.5026 5.93265 10.5904 6.08893 10.7467C6.24521 10.903 6.33301 11.1149 6.33301 11.3359V13.8359C6.33301 14.057 6.24521 14.2689 6.08893 14.4252C5.93265 14.5815 5.72069 14.6693 5.49967 14.6693H2.16634C1.94533 14.6693 1.73337 14.5815 1.57709 14.4252C1.42081 14.2689 1.33301 14.057 1.33301 13.8359V11.3359ZM9.66634 8.83594C9.66634 8.61492 9.75414 8.40296 9.91042 8.24668C10.0667 8.0904 10.2787 8.0026 10.4997 8.0026H13.833C14.054 8.0026 14.266 8.0904 14.4223 8.24668C14.5785 8.40296 14.6663 8.61492 14.6663 8.83594V13.8359C14.6663 14.057 14.5785 14.2689 14.4223 14.4252C14.266 14.5815 14.054 14.6693 13.833 14.6693H10.4997C10.2787 14.6693 10.0667 14.5815 9.91042 14.4252C9.75414 14.2689 9.66634 14.057 9.66634 13.8359V8.83594Z" stroke="white" stroke-width="2"/>
</svg>
