<svg width="18" height="18" viewBox="0 0 18 18" fill="none" xmlns="http://www.w3.org/2000/svg">
<path d="M3.85686 8.99858V5.61715C3.86691 4.95248 4.008 4.29632 4.27207 3.68627C4.53614 3.07622 4.91799 2.52427 5.39573 2.06205C5.87348 1.59983 6.43774 1.23642 7.05618 0.992644C7.67462 0.748869 8.33508 0.629521 8.99972 0.641437C9.66436 0.629521 10.3248 0.748869 10.9433 0.992644C11.5617 1.23642 12.126 1.59983 12.6037 2.06205C13.0815 2.52427 13.4633 3.07622 13.7274 3.68627C13.9914 4.29632 14.1325 4.95248 14.1426 5.61715V8.99858M11.5712 15.7486C12.2531 15.7486 12.9072 15.4777 13.3894 14.9954C13.8717 14.5132 14.1426 13.8591 14.1426 13.1772V10.2843M11.5712 15.7486C11.5712 16.1748 11.4018 16.5836 11.1004 16.885C10.799 17.1864 10.3902 17.3557 9.96401 17.3557H8.03544C7.6092 17.3557 7.20041 17.1864 6.89901 16.885C6.59762 16.5836 6.42829 16.1748 6.42829 15.7486C6.42829 15.3223 6.59762 14.9136 6.89901 14.6122C7.20041 14.3108 7.6092 14.1414 8.03544 14.1414H9.96401C10.3902 14.1414 10.799 14.3108 11.1004 14.6122C11.4018 14.9136 11.5712 15.3223 11.5712 15.7486ZM1.92829 7.07001H3.21401C3.3845 7.07001 3.54802 7.13774 3.66858 7.2583C3.78913 7.37886 3.85686 7.54237 3.85686 7.71287V11.57C3.85686 11.7405 3.78913 11.904 3.66858 12.0246C3.54802 12.1451 3.3845 12.2129 3.21401 12.2129H1.92829C1.5873 12.2129 1.26027 12.0774 1.01916 11.8363C0.778037 11.5952 0.642578 11.2681 0.642578 10.9272V8.35572C0.642578 8.01473 0.778037 7.6877 1.01916 7.44659C1.26027 7.20547 1.5873 7.07001 1.92829 7.07001ZM16.0712 12.2129H14.7854C14.6149 12.2129 14.4514 12.1451 14.3309 12.0246C14.2103 11.904 14.1426 11.7405 14.1426 11.57V7.71287C14.1426 7.54237 14.2103 7.37886 14.3309 7.2583C14.4514 7.13774 14.6149 7.07001 14.7854 7.07001H16.0712C16.4121 7.07001 16.7392 7.20547 16.9803 7.44659C17.2214 7.6877 17.3569 8.01473 17.3569 8.35572V10.9272C17.3569 11.2681 17.2214 11.5952 16.9803 11.8363C16.7392 12.0774 16.4121 12.2129 16.0712 12.2129Z" stroke="white" stroke-width="1.14286" stroke-linecap="round" stroke-linejoin="round"/>
</svg>
