<svg width="18" height="14" viewBox="0 0 18 14" fill="none" xmlns="http://www.w3.org/2000/svg">
<path d="M12.3333 12.8307H15.6667C15.8877 12.8307 16.0996 12.7429 16.2559 12.5867C16.4122 12.4304 16.5 12.2184 16.5 11.9974V11.1641C16.5 10.501 16.2366 9.86514 15.7678 9.3963C15.2989 8.92746 14.663 8.66406 14 8.66406H12.3333M10.47 5.33073C10.8075 5.70811 11.2517 5.97411 11.7437 6.09353C12.2358 6.21295 12.7525 6.18016 13.2254 5.99949C13.6984 5.81883 14.1054 5.49881 14.3925 5.08178C14.6797 4.66476 14.8334 4.17038 14.8334 3.66406C14.8334 3.15775 14.6797 2.66337 14.3925 2.24634C14.1054 1.82931 13.6984 1.5093 13.2254 1.32863C12.7525 1.14797 12.2358 1.11518 11.7437 1.23459C11.2517 1.35401 10.8075 1.62001 10.47 1.9974M1.5 11.9974V11.1641C1.5 10.501 1.76339 9.86514 2.23223 9.3963C2.70107 8.92746 3.33696 8.66406 4 8.66406H7.33333C7.99637 8.66406 8.63226 8.92746 9.1011 9.3963C9.56994 9.86514 9.83333 10.501 9.83333 11.1641V11.9974C9.83333 12.2184 9.74554 12.4304 9.58926 12.5867C9.43297 12.7429 9.22101 12.8307 9 12.8307H2.33333C2.11232 12.8307 1.90036 12.7429 1.74408 12.5867C1.5878 12.4304 1.5 12.2184 1.5 11.9974ZM8.16667 3.66406C8.16667 4.3271 7.90327 4.96299 7.43443 5.43183C6.96559 5.90067 6.32971 6.16406 5.66667 6.16406C5.00363 6.16406 4.36774 5.90067 3.8989 5.43183C3.43006 4.96299 3.16667 4.3271 3.16667 3.66406C3.16667 3.00102 3.43006 2.36514 3.8989 1.8963C4.36774 1.42746 5.00363 1.16406 5.66667 1.16406C6.32971 1.16406 6.96559 1.42746 7.43443 1.8963C7.90327 2.36514 8.16667 3.00102 8.16667 3.66406Z" stroke="#276EF1" stroke-width="1.33333" stroke-linecap="round"/>
</svg>
