<svg width="20" height="20" viewBox="0 0 20 20" fill="none" xmlns="http://www.w3.org/2000/svg">
<path d="M7.50033 10.0007H5.83367C5.61265 10.0007 5.40069 10.0885 5.24441 10.2448C5.08813 10.4011 5.00033 10.613 5.00033 10.834C5.00033 11.0551 5.08813 11.267 5.24441 11.4233C5.40069 11.5796 5.61265 11.6674 5.83367 11.6674H7.50033C7.72135 11.6674 7.93331 11.5796 8.08959 11.4233C8.24587 11.267 8.33367 11.0551 8.33367 10.834C8.33367 10.613 8.24587 10.4011 8.08959 10.2448C7.93331 10.0885 7.72135 10.0007 7.50033 10.0007ZM6.667 8.33404H10.0003C10.2213 8.33404 10.4333 8.24624 10.5896 8.08996C10.7459 7.93368 10.8337 7.72172 10.8337 7.50071C10.8337 7.27969 10.7459 7.06773 10.5896 6.91145C10.4333 6.75517 10.2213 6.66737 10.0003 6.66737H6.667C6.44599 6.66737 6.23402 6.75517 6.07774 6.91145C5.92146 7.06773 5.83367 7.27969 5.83367 7.50071C5.83367 7.72172 5.92146 7.93368 6.07774 8.08996C6.23402 8.24624 6.44599 8.33404 6.667 8.33404ZM7.50033 13.334H5.83367C5.61265 13.334 5.40069 13.4218 5.24441 13.5781C5.08813 13.7344 5.00033 13.9464 5.00033 14.1674C5.00033 14.3884 5.08813 14.6004 5.24441 14.7566C5.40069 14.9129 5.61265 15.0007 5.83367 15.0007H7.50033C7.72135 15.0007 7.93331 14.9129 8.08959 14.7566C8.24587 14.6004 8.33367 14.3884 8.33367 14.1674C8.33367 13.9464 8.24587 13.7344 8.08959 13.5781C7.93331 13.4218 7.72135 13.334 7.50033 13.334ZM17.5003 10.0007H15.0003V2.50071C15.0009 2.35387 14.9627 2.20948 14.8895 2.08216C14.8163 1.95485 14.7108 1.84913 14.5837 1.77571C14.457 1.70257 14.3133 1.66406 14.167 1.66406C14.0207 1.66406 13.877 1.70257 13.7503 1.77571L11.2503 3.20904L8.75033 1.77571C8.62365 1.70257 8.47995 1.66406 8.33367 1.66406C8.18739 1.66406 8.04368 1.70257 7.917 1.77571L5.417 3.20904L2.917 1.77571C2.79032 1.70257 2.64661 1.66406 2.50033 1.66406C2.35405 1.66406 2.21035 1.70257 2.08367 1.77571C1.9565 1.84913 1.85098 1.95485 1.77781 2.08216C1.70464 2.20948 1.66642 2.35387 1.667 2.50071V15.834C1.667 16.4971 1.93039 17.133 2.39923 17.6018C2.86807 18.0707 3.50396 18.334 4.167 18.334H15.8337C16.4967 18.334 17.1326 18.0707 17.6014 17.6018C18.0703 17.133 18.3337 16.4971 18.3337 15.834V10.834C18.3337 10.613 18.2459 10.4011 18.0896 10.2448C17.9333 10.0885 17.7213 10.0007 17.5003 10.0007ZM4.167 16.6674C3.94599 16.6674 3.73402 16.5796 3.57774 16.4233C3.42146 16.267 3.33367 16.0551 3.33367 15.834V3.94237L5.00033 4.89237C5.12895 4.95955 5.2719 4.99463 5.417 4.99463C5.5621 4.99463 5.70505 4.95955 5.83367 4.89237L8.33367 3.45904L10.8337 4.89237C10.9623 4.95955 11.1052 4.99463 11.2503 4.99463C11.3954 4.99463 11.5384 4.95955 11.667 4.89237L13.3337 3.94237V15.834C13.3359 16.1183 13.3866 16.4001 13.4837 16.6674H4.167ZM16.667 15.834C16.667 16.0551 16.5792 16.267 16.4229 16.4233C16.2666 16.5796 16.0547 16.6674 15.8337 16.6674C15.6127 16.6674 15.4007 16.5796 15.2444 16.4233C15.0881 16.267 15.0003 16.0551 15.0003 15.834V11.6674H16.667V15.834ZM11.3003 13.4757C11.2537 13.4445 11.2033 13.4193 11.1503 13.4007C11.1007 13.3753 11.0472 13.3584 10.992 13.3507C10.8581 13.3239 10.7197 13.3304 10.5889 13.3696C10.4581 13.4089 10.339 13.4796 10.242 13.5757C10.0897 13.7354 10.0034 13.9467 10.0003 14.1674C9.99901 14.2757 10.0188 14.3833 10.0587 14.484C10.1041 14.5852 10.1661 14.6782 10.242 14.759C10.3235 14.832 10.4164 14.8911 10.517 14.934C10.6167 14.9781 10.7246 15.0009 10.8337 15.0009C10.9427 15.0009 11.0506 14.9781 11.1503 14.934C11.251 14.8911 11.3439 14.832 11.4253 14.759C11.5026 14.6812 11.5637 14.5888 11.6051 14.4873C11.6466 14.3858 11.6676 14.277 11.667 14.1674C11.6639 13.9467 11.5776 13.7354 11.4253 13.5757C11.3853 13.5404 11.3436 13.507 11.3003 13.4757ZM11.417 10.2424C11.3197 10.1476 11.2007 10.0781 11.0704 10.0398C10.9401 10.0015 10.8024 9.99571 10.6693 10.0228C10.5362 10.0499 10.4117 10.1092 10.3068 10.1954C10.2018 10.2816 10.1195 10.3921 10.067 10.5174C10.0151 10.6436 9.99507 10.7807 10.0086 10.9165C10.0221 11.0523 10.0687 11.1827 10.1444 11.2963C10.2202 11.4099 10.3226 11.5031 10.4428 11.5678C10.563 11.6325 10.6972 11.6667 10.8337 11.6674C11.0547 11.6674 11.2666 11.5796 11.4229 11.4233C11.5792 11.267 11.667 11.0551 11.667 10.834C11.6657 10.7251 11.643 10.6176 11.6003 10.5174C11.5604 10.4132 11.4978 10.3193 11.417 10.2424Z" fill="#808A92"/>
</svg>
