<svg width="40" height="40" viewBox="0 0 40 40" fill="none" xmlns="http://www.w3.org/2000/svg">
<rect width="40" height="40" rx="8" fill="#02AC27" fill-opacity="0.1"/>
<path d="M30.375 26.25C30.375 26.4158 30.3092 26.5747 30.1919 26.6919C30.0747 26.8091 29.9158 26.875 29.75 26.875H12.25C12.0842 26.875 11.9253 26.8091 11.8081 26.6919C11.6908 26.5747 11.625 26.4158 11.625 26.25C11.625 26.0842 11.6908 25.9253 11.8081 25.8081C11.9253 25.6908 12.0842 25.625 12.25 25.625H29.75C29.9158 25.625 30.0747 25.6908 30.1919 25.8081C30.3092 25.9253 30.375 26.0842 30.375 26.25ZM12.2734 17.6703C12.2363 17.5392 12.2429 17.3996 12.2924 17.2727C12.3419 17.1458 12.4316 17.0385 12.5477 16.9672L20.6727 11.9672C20.7711 11.9067 20.8844 11.8746 21 11.8746C21.1156 11.8746 21.2289 11.9067 21.3273 11.9672L29.4523 16.9672C29.5685 17.0384 29.6582 17.1456 29.7078 17.2725C29.7573 17.3993 29.7641 17.5389 29.7271 17.67C29.69 17.8011 29.6111 17.9165 29.5024 17.9986C29.3938 18.0808 29.2612 18.1251 29.125 18.125H27.25V23.125H28.5C28.6658 23.125 28.8247 23.1908 28.9419 23.3081C29.0592 23.4253 29.125 23.5842 29.125 23.75C29.125 23.9158 29.0592 24.0747 28.9419 24.1919C28.8247 24.3091 28.6658 24.375 28.5 24.375H13.5C13.3342 24.375 13.1753 24.3091 13.0581 24.1919C12.9408 24.0747 12.875 23.9158 12.875 23.75C12.875 23.5842 12.9408 23.4253 13.0581 23.3081C13.1753 23.1908 13.3342 23.125 13.5 23.125H14.75V18.125H12.875C12.7389 18.125 12.6065 18.0807 12.4979 17.9986C12.3893 17.9165 12.3105 17.8013 12.2734 17.6703ZM22.25 22.5C22.25 22.6658 22.3158 22.8247 22.4331 22.9419C22.5503 23.0591 22.7092 23.125 22.875 23.125C23.0408 23.125 23.1997 23.0591 23.3169 22.9419C23.4342 22.8247 23.5 22.6658 23.5 22.5V18.75C23.5 18.5842 23.4342 18.4253 23.3169 18.3081C23.1997 18.1908 23.0408 18.125 22.875 18.125C22.7092 18.125 22.5503 18.1908 22.4331 18.3081C22.3158 18.4253 22.25 18.5842 22.25 18.75V22.5ZM18.5 22.5C18.5 22.6658 18.5658 22.8247 18.6831 22.9419C18.8003 23.0591 18.9592 23.125 19.125 23.125C19.2908 23.125 19.4497 23.0591 19.5669 22.9419C19.6842 22.8247 19.75 22.6658 19.75 22.5V18.75C19.75 18.5842 19.6842 18.4253 19.5669 18.3081C19.4497 18.1908 19.2908 18.125 19.125 18.125C18.9592 18.125 18.8003 18.1908 18.6831 18.3081C18.5658 18.4253 18.5 18.5842 18.5 18.75V22.5Z" fill="#02AC27"/>
</svg>
