<svg width="40" height="41" viewBox="0 0 40 41" fill="none" xmlns="http://www.w3.org/2000/svg">
<rect y="0.5" width="40" height="40" rx="8" fill="#5AB0FF" fill-opacity="0.1"/>
<path d="M27.875 13.625H14.125C13.7935 13.625 13.4755 13.7567 13.2411 13.9911C13.0067 14.2255 12.875 14.5435 12.875 14.875V26.75C12.8751 26.8565 12.9023 26.9613 12.9543 27.0543C13.0062 27.1473 13.081 27.2255 13.1716 27.2815C13.2623 27.3374 13.3657 27.3693 13.4721 27.374C13.5786 27.3788 13.6844 27.3563 13.7797 27.3086L16 26.1984L18.2203 27.3086C18.3071 27.352 18.4029 27.3747 18.5 27.3747C18.5971 27.3747 18.6929 27.352 18.7797 27.3086L21 26.1984L23.2203 27.3086C23.3071 27.352 23.4029 27.3747 23.5 27.3747C23.5971 27.3747 23.6929 27.352 23.7797 27.3086L26 26.1984L28.2203 27.3086C28.3156 27.3563 28.4214 27.3788 28.5279 27.374C28.6343 27.3693 28.7377 27.3374 28.8284 27.2815C28.919 27.2255 28.9938 27.1473 29.0457 27.0543C29.0977 26.9613 29.1249 26.8565 29.125 26.75V14.875C29.125 14.5435 28.9933 14.2255 28.7589 13.9911C28.5245 13.7567 28.2065 13.625 27.875 13.625ZM24.75 21.75H17.25C17.0842 21.75 16.9253 21.6842 16.8081 21.5669C16.6908 21.4497 16.625 21.2908 16.625 21.125C16.625 20.9592 16.6908 20.8003 16.8081 20.6831C16.9253 20.5658 17.0842 20.5 17.25 20.5H24.75C24.9158 20.5 25.0747 20.5658 25.1919 20.6831C25.3092 20.8003 25.375 20.9592 25.375 21.125C25.375 21.2908 25.3092 21.4497 25.1919 21.5669C25.0747 21.6842 24.9158 21.75 24.75 21.75ZM24.75 19.25H17.25C17.0842 19.25 16.9253 19.1842 16.8081 19.0669C16.6908 18.9497 16.625 18.7908 16.625 18.625C16.625 18.4592 16.6908 18.3003 16.8081 18.1831C16.9253 18.0658 17.0842 18 17.25 18H24.75C24.9158 18 25.0747 18.0658 25.1919 18.1831C25.3092 18.3003 25.375 18.4592 25.375 18.625C25.375 18.7908 25.3092 18.9497 25.1919 19.0669C25.0747 19.1842 24.9158 19.25 24.75 19.25Z" fill="#5AB0FF"/>
</svg>
