<svg width="40" height="40" viewBox="0 0 40 40" fill="none" xmlns="http://www.w3.org/2000/svg">
<rect width="40" height="40" rx="8" fill="#2C6BF2" fill-opacity="0.1"/>
<path d="M28.5 13.75H13.5C13.1685 13.75 12.8505 13.8817 12.6161 14.1161C12.3817 14.3505 12.25 14.6685 12.25 15V25C12.25 25.3315 12.3817 25.6495 12.6161 25.8839C12.8505 26.1183 13.1685 26.25 13.5 26.25H28.5C28.8315 26.25 29.1495 26.1183 29.3839 25.8839C29.6183 25.6495 29.75 25.3315 29.75 25V15C29.75 14.6685 29.6183 14.3505 29.3839 14.1161C29.1495 13.8817 28.8315 13.75 28.5 13.75ZM21.625 23.75H20.375C20.2092 23.75 20.0503 23.6842 19.9331 23.5669C19.8158 23.4497 19.75 23.2908 19.75 23.125C19.75 22.9592 19.8158 22.8003 19.9331 22.6831C20.0503 22.5658 20.2092 22.5 20.375 22.5H21.625C21.7908 22.5 21.9497 22.5658 22.0669 22.6831C22.1842 22.8003 22.25 22.9592 22.25 23.125C22.25 23.2908 22.1842 23.4497 22.0669 23.5669C21.9497 23.6842 21.7908 23.75 21.625 23.75ZM26.625 23.75H24.125C23.9592 23.75 23.8003 23.6842 23.6831 23.5669C23.5658 23.4497 23.5 23.2908 23.5 23.125C23.5 22.9592 23.5658 22.8003 23.6831 22.6831C23.8003 22.5658 23.9592 22.5 24.125 22.5H26.625C26.7908 22.5 26.9497 22.5658 27.0669 22.6831C27.1842 22.8003 27.25 22.9592 27.25 23.125C27.25 23.2908 27.1842 23.4497 27.0669 23.5669C26.9497 23.6842 26.7908 23.75 26.625 23.75ZM13.5 16.875V15H28.5V16.875H13.5Z" fill="#367DFF"/>
</svg>
