<svg xmlns="http://www.w3.org/2000/svg" width="430" height="430" fill="none" viewBox="0 0 430 430"><path fill="#ffc738" d="M354 348.39H76a13 13 0 0 1-11.29-19.55l139-240.8a13 13 0 0 1 11.285-6.546 13 13 0 0 1 11.285 6.546l139 240.8a13.005 13.005 0 0 1-4.749 17.82 13 13 0 0 1-6.531 1.73"/><path fill="#ffc738" d="M104.71 348.39H76a13 13 0 0 1-11.29-19.55l139-240.8a13 13 0 0 1 17.818-4.797 13 13 0 0 1 4.762 4.797l3.08 5.34-136 235.46a13 13 0 0 0 11.34 19.55" opacity=".5" style="mix-blend-mode:multiply"/><path fill="#92140c" d="M230.85 300.98a15.848 15.848 0 0 1-27.057 11.208 15.852 15.852 0 0 1 2.402-24.387 15.851 15.851 0 0 1 24.655 13.179m3.5-112.95-2.81 57.89a13.87 13.87 0 0 1-13.83 13.17h-5.42a13.83 13.83 0 0 1-13.81-13.17l-2.83-57.89a16.4 16.4 0 0 1 4.491-12.102 16.4 16.4 0 0 1 5.406-3.766A16.4 16.4 0 0 1 212 170.83h6c2.219.003 4.414.456 6.453 1.332a16.4 16.4 0 0 1 8.893 9.356 16.4 16.4 0 0 1 1.004 6.512"/><path fill="#92140c" d="M221.07 315.63a15.85 15.85 0 0 1-20.03-7.182 15.86 15.86 0 0 1 0-14.936 15.85 15.85 0 0 1 20.03-7.182 15.86 15.86 0 0 0 0 29.3m0-56.95a13.8 13.8 0 0 1-3.36.41h-5.42a13.85 13.85 0 0 1-13.82-13.17l-2.82-57.89a16.4 16.4 0 0 1 4.491-12.102 16.4 16.4 0 0 1 5.406-3.766A16.4 16.4 0 0 1 212 170.83h6a15.7 15.7 0 0 1 3.09.3 16.38 16.38 0 0 0-13.28 16.9l2.82 57.89a13.88 13.88 0 0 0 10.44 12.76" opacity=".5" style="mix-blend-mode:multiply"/></svg>