<svg width="60" height="60" viewBox="0 0 60 60" fill="none" xmlns="http://www.w3.org/2000/svg">
<rect width="60" height="60" rx="30" fill="#FD7E14"/>
<path d="M18.4063 41.25C18.1771 41.25 17.9688 41.1929 17.7813 41.0788C17.5938 40.9646 17.4479 40.8133 17.3438 40.625C17.2396 40.4367 17.1825 40.2333 17.1725 40.015C17.1625 39.7967 17.2196 39.5833 17.3438 39.375L28.9063 19.375C29.0313 19.1667 29.1929 19.0104 29.3913 18.9062C29.5896 18.8021 29.7925 18.75 30 18.75C30.2075 18.75 30.4108 18.8021 30.61 18.9062C30.8092 19.0104 30.9704 19.1667 31.0938 19.375L42.6563 39.375C42.7813 39.5833 42.8388 39.7971 42.8288 40.0163C42.8188 40.2354 42.7613 40.4383 42.6563 40.625C42.5513 40.8117 42.4054 40.9629 42.2188 41.0788C42.0321 41.1946 41.8238 41.2517 41.5938 41.25H18.4063ZM20.5625 38.75H39.4375L30 22.5L20.5625 38.75ZM30 37.5C30.3542 37.5 30.6513 37.38 30.8913 37.14C31.1313 36.9 31.2508 36.6033 31.25 36.25C31.2492 35.8967 31.1292 35.6 30.89 35.36C30.6508 35.12 30.3542 35 30 35C29.6458 35 29.3492 35.12 29.11 35.36C28.8708 35.6 28.7508 35.8967 28.75 36.25C28.7492 36.6033 28.8692 36.9004 29.11 37.1412C29.3508 37.3821 29.6475 37.5017 30 37.5ZM30 33.75C30.3542 33.75 30.6513 33.63 30.8913 33.39C31.1313 33.15 31.2508 32.8533 31.25 32.5V28.75C31.25 28.3958 31.13 28.0992 30.89 27.86C30.65 27.6208 30.3533 27.5008 30 27.5C29.6467 27.4992 29.35 27.6192 29.11 27.86C28.87 28.1008 28.75 28.3975 28.75 28.75V32.5C28.75 32.8542 28.87 33.1513 29.11 33.3913C29.35 33.6313 29.6467 33.7508 30 33.75Z" fill="white"/>
</svg>
