<svg width="62" height="62" viewBox="0 0 62 62" fill="none" xmlns="http://www.w3.org/2000/svg">
<rect x="0.635742" y="0.632812" width="60.7287" height="60.7287" rx="30.3644" fill="#F1B80C"/>
<path d="M21.9375 18.5H40.0625C40.3111 18.5 40.5496 18.5988 40.7254 18.7746C40.9012 18.9504 41 19.1889 41 19.4375C41 19.6861 40.9012 19.9246 40.7254 20.1004C40.5496 20.2762 40.3111 20.375 40.0625 20.375H39.125V24.1025C39.125 25.1052 38.8711 26.0915 38.3869 26.9695C37.9028 27.8475 37.2042 28.5886 36.3562 29.1237L33.8013 30.7362C33.7569 30.7645 33.7203 30.8034 33.695 30.8495C33.6696 30.8956 33.6564 30.9474 33.6564 31C33.6564 31.0526 33.6696 31.1044 33.695 31.1505C33.7203 31.1966 33.7569 31.2355 33.8013 31.2638L36.3562 32.8763C37.2042 33.4114 37.9028 34.1525 38.3869 35.0305C38.8711 35.9085 39.125 36.8948 39.125 37.8975V41.625H40.0625C40.3111 41.625 40.5496 41.7238 40.7254 41.8996C40.9012 42.0754 41 42.3139 41 42.5625C41 42.8111 40.9012 43.0496 40.7254 43.2254C40.5496 43.4012 40.3111 43.5 40.0625 43.5H21.9375C21.6889 43.5 21.4504 43.4012 21.2746 43.2254C21.0988 43.0496 21 42.8111 21 42.5625C21 42.3139 21.0988 42.0754 21.2746 41.8996C21.4504 41.7238 21.6889 41.625 21.9375 41.625H22.875V37.8975C22.875 36.8948 23.1289 35.9085 23.6131 35.0305C24.0972 34.1525 24.7958 33.4114 25.6438 32.8763L28.1987 31.2638C28.2431 31.2355 28.2797 31.1966 28.305 31.1505C28.3304 31.1044 28.3436 31.0526 28.3436 31C28.3436 30.9474 28.3304 30.8956 28.305 30.8495C28.2797 30.8034 28.2431 30.7645 28.1987 30.7362L25.6438 29.1237C24.7958 28.5886 24.0972 27.8475 23.6131 26.9695C23.1289 26.0915 22.875 25.1052 22.875 24.1025V20.375H21.9375C21.6889 20.375 21.4504 20.2762 21.2746 20.1004C21.0988 19.9246 21 19.6861 21 19.4375C21 19.1889 21.0988 18.9504 21.2746 18.7746C21.4504 18.5988 21.6889 18.5 21.9375 18.5ZM37.25 20.375H24.75V24.1025C24.7502 24.7885 24.924 25.4633 25.2554 26.0639C25.5868 26.6645 26.0648 27.1715 26.645 27.5375L29.2 29.15C29.5124 29.3471 29.7698 29.6202 29.9482 29.9437C30.1266 30.2672 30.2202 30.6306 30.2202 31C30.2202 31.3694 30.1266 31.7328 29.9482 32.0563C29.7698 32.3798 29.5124 32.6529 29.2 32.85L26.645 34.4625C26.0648 34.8285 25.5868 35.3355 25.2554 35.9361C24.924 36.5367 24.7502 37.2115 24.75 37.8975V41.625H37.25V37.8975C37.2498 37.2115 37.076 36.5367 36.7446 35.9361C36.4132 35.3355 35.9352 34.8285 35.355 34.4625L32.8 32.85C32.4876 32.6529 32.2302 32.3798 32.0518 32.0563C31.8734 31.7328 31.7798 31.3694 31.7798 31C31.7798 30.6306 31.8734 30.2672 32.0518 29.9437C32.2302 29.6202 32.4876 29.3471 32.8 29.15L35.355 27.5375C35.9352 27.1715 36.4132 26.6645 36.7446 26.0639C37.076 25.4633 37.2498 24.7885 37.25 24.1025V20.375Z" fill="white"/>
</svg>
