<svg width="60" height="60" viewBox="0 0 60 60" fill="none" xmlns="http://www.w3.org/2000/svg">
<rect width="60" height="60" rx="30" fill="#6F42C1"/>
<path d="M23.5472 28.7252C23.6143 28.6598 23.7047 28.6238 23.7984 28.625C23.8921 28.6263 23.9815 28.6647 24.0469 28.7318L24.5259 29.223C25.0594 28.8227 25.5853 28.7908 26.0053 28.8996C26.2817 28.972 26.5379 29.1067 26.7544 29.2933L26.7675 29.3055L26.7722 29.3102L26.7741 29.3111L26.5331 29.5671L26.775 29.3121C26.8396 29.3774 26.8763 29.4651 26.8774 29.557C26.8786 29.6488 26.844 29.7374 26.781 29.8043C26.7181 29.8711 26.6317 29.9109 26.5399 29.9153C26.4482 29.9197 26.3584 29.8883 26.2894 29.8277L26.2856 29.824L26.265 29.8071C26.1356 29.7041 25.9867 29.6285 25.8272 29.5849C25.5703 29.5174 25.1944 29.5221 24.7566 29.9599C24.3187 30.3977 24.3178 30.768 24.3853 31.0174C24.4299 31.1827 24.5117 31.3357 24.6244 31.4646C24.6567 31.4919 24.6908 31.5169 24.7266 31.5396C24.8044 31.5911 24.9141 31.6483 25.0453 31.6802C25.2844 31.7383 25.65 31.7308 26.0934 31.2874C26.3991 30.9818 26.7169 30.8074 27.0309 30.7333C27.345 30.6583 27.6328 30.6893 27.8709 30.7586C28.1524 30.8422 28.4122 30.9861 28.6322 31.1805L28.6453 31.1927L28.65 31.1965L28.6519 31.1983C28.6519 31.1983 28.6528 31.1993 28.4062 31.4533L28.6781 31.2283H28.68L28.6819 31.2311L28.6847 31.2358L28.6959 31.249C28.7427 31.3101 28.7844 31.375 28.8206 31.443C28.89 31.5696 28.9706 31.7524 29.0137 31.9755C29.0887 32.3693 29.0372 32.8605 28.6669 33.3536L29.22 33.9143C29.2539 33.947 29.2809 33.9861 29.2995 34.0295C29.3181 34.0728 29.3278 34.1193 29.3281 34.1665C29.3284 34.2136 29.3192 34.2603 29.3012 34.3038C29.2832 34.3474 29.2567 34.3869 29.2231 34.42C29.1896 34.4531 29.1498 34.4792 29.1061 34.4967C29.0624 34.5143 29.0156 34.5229 28.9685 34.5221C28.9213 34.5212 28.8749 34.511 28.8318 34.4919C28.7887 34.4729 28.7498 34.4454 28.7175 34.4111L28.1681 33.8561C27.6694 34.2311 27.1734 34.2808 26.775 34.203C26.5116 34.1491 26.2628 34.0391 26.0456 33.8805L26.0316 33.8693L26.0269 33.8655L26.025 33.8646C25.959 33.8031 25.9189 33.7179 25.9129 33.6279C25.9069 33.5379 25.9355 33.449 25.9927 33.3794C26.05 33.3097 26.1316 33.2645 26.2211 33.2529C26.3105 33.2413 26.401 33.2643 26.4741 33.3171L26.4759 33.319L26.4947 33.333C26.5141 33.3468 26.5437 33.3649 26.5837 33.3874C26.6634 33.4324 26.7769 33.4821 26.9119 33.5093C27.1594 33.5571 27.5212 33.5346 27.9309 33.1249C28.3416 32.7143 28.3659 32.3533 28.3191 32.1077C28.2897 31.9611 28.2313 31.8218 28.1475 31.698L28.1447 31.6933L28.1353 31.6849C27.9997 31.5723 27.8429 31.4881 27.6741 31.4374C27.5184 31.391 27.3533 31.3858 27.195 31.4224C27.0234 31.4627 26.8181 31.563 26.5941 31.788C25.9781 32.404 25.3594 32.4855 24.8784 32.3674C24.6092 32.3 24.3594 32.1706 24.1491 31.9896L24.1359 31.9774L24.1322 31.9727L24.1303 31.9708H24.1294L24.375 31.7158L24.1219 31.9633L24.1191 31.9605L24.1153 31.9558L24.1031 31.9427L24.0656 31.8996C23.8964 31.6954 23.7724 31.4577 23.7019 31.2021C23.5894 30.783 23.6203 30.2571 24.0253 29.7227L23.5406 29.2258C23.5081 29.1926 23.4825 29.1532 23.4652 29.11C23.4479 29.0668 23.4394 29.0207 23.44 28.9742C23.4406 28.9276 23.4504 28.8817 23.4688 28.839C23.4872 28.7963 23.5138 28.7576 23.5472 28.7252Z" fill="white"/>
<path d="M24.3752 31.7197L24.1296 31.9747L24.1221 31.9672L24.3752 31.7197ZM28.4064 31.4572L28.6521 31.2031L28.6671 31.2172L28.6793 31.2322L28.4064 31.4572Z" fill="white"/>
<path d="M25.6446 39.3374L25.6342 39.328L18.6124 32.3062C18.13 31.8228 17.8592 31.1679 17.8592 30.4851C17.8592 29.8023 18.13 29.1473 18.6124 28.664L22.5217 24.7612H21.2252C20.7787 24.762 20.349 24.5912 20.025 24.2841C19.7009 23.977 19.5073 23.557 19.4842 23.1112C19.6189 23.1121 19.7532 23.1275 19.8846 23.1571H23.3439V22.8346H19.8846C19.487 22.8354 19.1011 22.7 18.7912 22.451C18.4812 22.202 18.2659 21.8543 18.1811 21.4659C18.3155 21.499 18.4552 21.5159 18.6002 21.5165H22.938V21.194H18.9133C17.9158 21.194 17.0899 20.5837 16.9146 19.7727H25.3221C25.9105 19.7719 26.4804 19.9783 26.9317 20.3559L30.603 16.6902C31.0863 16.2082 31.741 15.9375 32.4236 15.9375C33.1062 15.9375 33.7609 16.2082 34.2442 16.6902L35.9955 18.4452C36.0192 18.4659 36.0417 18.4874 36.063 18.5099L43.0849 25.5318C44.0824 26.5293 44.0758 28.1634 43.0755 29.1637L38.5905 33.6496C38.7499 33.9805 38.8408 34.3527 38.8408 34.7446V43.1521C38.0299 42.9768 37.4195 42.1509 37.4195 41.1534V37.2674H37.097V41.6052C37.097 41.699 37.1042 41.7905 37.1186 41.8799C36.7368 41.7892 36.3968 41.5723 36.1535 41.2644C35.9102 40.9565 35.7779 40.5755 35.778 40.183V36.7237H35.4564V40.183C35.4564 40.3212 35.4717 40.4546 35.5024 40.5834C34.5789 40.5346 33.8195 39.7771 33.8195 38.8424V38.4205L31.0942 41.1459C30.6109 41.6279 29.9562 41.8986 29.2736 41.8986C28.591 41.8986 27.9363 41.6279 27.453 41.1459L25.6474 39.3402L25.6446 39.3374ZM31.9286 18.0187L27.8289 22.1118C27.8423 22.3047 27.8335 22.4984 27.8027 22.6893L29.5127 24.3993C29.752 23.679 30.2396 23.0672 30.8885 22.6733C31.5373 22.2794 32.3051 22.1291 33.0546 22.2493C33.8041 22.3694 34.4864 22.7522 34.9797 23.3291C35.4729 23.9061 35.7449 24.6396 35.747 25.3987C35.7472 26.0719 35.5349 26.7279 35.1403 27.2734C34.7457 27.8188 34.189 28.2257 33.5496 28.4362L35.5324 30.419L39.9311 26.0202C40.0611 25.8902 40.1341 25.7138 40.1341 25.5299C40.1341 25.346 40.0611 25.1697 39.9311 25.0396L32.9186 18.0177C32.7869 17.8872 32.609 17.814 32.4236 17.814C32.2382 17.814 32.0603 17.8881 31.9286 18.0187ZM24.6002 25.334L19.938 29.9887C19.8075 30.1204 19.7342 30.2983 19.7342 30.4837C19.7342 30.6691 19.8075 30.847 19.938 30.9787L26.9599 38.0005C27.0915 38.1311 27.2695 38.2043 27.4549 38.2043C27.6403 38.2043 27.8182 38.1311 27.9499 38.0005L32.6092 33.3412L24.6002 25.334Z" fill="white"/>
</svg>
