<svg width="62" height="62" viewBox="0 0 62 62" fill="none" xmlns="http://www.w3.org/2000/svg">
<rect x="0.635742" y="0.632812" width="60.7287" height="60.7287" rx="30.3644" fill="#DC3545"/>
<path d="M37.1324 23.0997C35.2081 21.6068 32.8051 20.8674 30.3744 21.0203C27.9437 21.1731 25.6522 22.2077 23.9301 23.9298C22.2079 25.652 21.1733 27.9434 21.0205 30.3742C20.8676 32.8049 21.607 35.2079 23.0999 37.1322L37.1324 23.0997ZM38.8999 24.8672L24.8674 38.8997C26.7921 40.3898 29.1941 41.127 31.6234 40.973C34.0527 40.8191 36.3424 39.7846 38.0636 38.0634C39.7848 36.3422 40.8193 34.0524 40.9732 31.6232C41.1272 29.1939 40.39 26.7919 38.8999 24.8672ZM22.1624 22.1609C27.0437 17.2797 34.9587 17.2797 39.8399 22.1609C44.7212 27.0422 44.7212 34.9572 39.8399 39.8384C34.9587 44.7197 27.0437 44.7197 22.1624 39.8384C17.2812 34.9572 17.2812 27.0422 22.1624 22.1609Z" fill="white"/>
</svg>
