<svg width="60" height="60" viewBox="0 0 60 60" fill="none" xmlns="http://www.w3.org/2000/svg">
<rect width="60" height="60" rx="30" fill="#343A40"/>
<path d="M39.5 27.0025C38.8424 25.0018 37.57 23.2598 35.8641 22.0248C34.1582 20.7899 32.106 20.125 30 20.125C27.894 20.125 25.8418 20.7899 24.1359 22.0248C22.43 23.2598 21.1576 25.0018 20.5 27.0025M20 23.0025V27.0025H24M36 33.0025H40V37.0025M20.5 33.0025C21.1576 35.0032 22.43 36.7452 24.1359 37.9802C25.8418 39.2151 27.894 39.88 30 39.88C32.106 39.88 34.1582 39.2151 35.8641 37.9802C37.57 36.7452 38.8424 35.0032 39.5 33.0025" stroke="white" stroke-width="2" stroke-linecap="round" stroke-linejoin="round"/>
</svg>
