<svg width="40" height="40" viewBox="0 0 40 40" fill="none" xmlns="http://www.w3.org/2000/svg">
<rect width="40" height="40" rx="8" fill="#FFAF2D" fill-opacity="0.1"/>
<path d="M26.6922 16.4328L22.3172 12.0578C22.2591 11.9998 22.1902 11.9538 22.1143 11.9224C22.0384 11.891 21.9571 11.8749 21.875 11.875H14.375C14.0435 11.875 13.7255 12.0067 13.4911 12.2411C13.2567 12.4755 13.125 12.7935 13.125 13.125V26.875C13.125 27.2065 13.2567 27.5245 13.4911 27.7589C13.7255 27.9933 14.0435 28.125 14.375 28.125H25.625C25.9565 28.125 26.2745 27.9933 26.5089 27.7589C26.7433 27.5245 26.875 27.2065 26.875 26.875V16.875C26.8751 16.7929 26.859 16.7116 26.8276 16.6357C26.7962 16.5598 26.7502 16.4909 26.6922 16.4328ZM24.375 25C24.375 25.1658 24.3092 25.3247 24.1919 25.4419C24.0747 25.5592 23.9158 25.625 23.75 25.625H22.5C22.4171 25.625 22.3376 25.5921 22.279 25.5335C22.2204 25.4749 22.1875 25.3954 22.1875 25.3125V22.5211C22.1897 22.3598 22.1307 22.2037 22.0224 22.0841C21.9142 21.9645 21.7646 21.8904 21.6039 21.8766C21.5184 21.8709 21.4327 21.8828 21.352 21.9117C21.2713 21.9406 21.1974 21.9857 21.1349 22.0443C21.0725 22.1029 21.0227 22.1738 20.9887 22.2524C20.9547 22.3311 20.9373 22.4159 20.9375 22.5016V25.3141C20.9375 25.3969 20.9046 25.4764 20.846 25.535C20.7874 25.5936 20.7079 25.6266 20.625 25.6266H19.375C19.2921 25.6266 19.2126 25.5936 19.154 25.535C19.0954 25.4764 19.0625 25.3969 19.0625 25.3141V22.5211C19.0647 22.3598 19.0057 22.2037 18.8974 22.0841C18.7892 21.9645 18.6396 21.8904 18.4789 21.8766C18.3934 21.8709 18.3077 21.8828 18.227 21.9117C18.1463 21.9406 18.0724 21.9857 18.0099 22.0443C17.9475 22.1029 17.8977 22.1738 17.8637 22.2524C17.8297 22.3311 17.8123 22.4159 17.8125 22.5016V25.3141C17.8125 25.3969 17.7796 25.4764 17.721 25.535C17.6624 25.5936 17.5829 25.6266 17.5 25.6266H16.25C16.0842 25.6266 15.9253 25.5607 15.8081 25.4435C15.6908 25.3263 15.625 25.1673 15.625 25.0016V20.625C15.625 20.4592 15.6908 20.3003 15.8081 20.1831C15.9253 20.0658 16.0842 20 16.25 20H23.75C23.9158 20 24.0747 20.0658 24.1919 20.1831C24.3092 20.3003 24.375 20.4592 24.375 20.625V25Z" fill="#FFAF2D"/>
</svg>
