<svg width="40" height="40" viewBox="0 0 40 40" fill="none" xmlns="http://www.w3.org/2000/svg">
<rect width="40" height="40" rx="8" fill="#B320D8" fill-opacity="0.1"/>
<path d="M28.7312 22.3484L26.975 15.3219C26.9074 15.0513 26.7512 14.8112 26.5314 14.6396C26.3115 14.468 26.0406 14.3749 25.7617 14.375H20.625V13.125C20.625 12.7935 20.4933 12.4755 20.2589 12.2411C20.0245 12.0067 19.7065 11.875 19.375 11.875H16.25C15.9185 11.875 15.6005 12.0067 15.3661 12.2411C15.1317 12.4755 15 12.7935 15 13.125V14.375H14.2383C13.9594 14.3749 13.6885 14.468 13.4686 14.6396C13.2488 14.8112 13.0926 15.0513 13.025 15.3219L11.2688 22.3484C11.2563 22.398 11.25 22.4489 11.25 22.5V25C11.25 25.3315 11.3817 25.6495 11.6161 25.8839C11.8505 26.1183 12.1685 26.25 12.5 26.25H27.5C27.8315 26.25 28.1495 26.1183 28.3839 25.8839C28.6183 25.6495 28.75 25.3315 28.75 25V22.5C28.75 22.4489 28.7437 22.398 28.7312 22.3484ZM23.125 16.875H24.375C24.5408 16.875 24.6997 16.9408 24.8169 17.0581C24.9342 17.1753 25 17.3342 25 17.5C25 17.6658 24.9342 17.8247 24.8169 17.9419C24.6997 18.0592 24.5408 18.125 24.375 18.125H23.125C22.9592 18.125 22.8003 18.0592 22.6831 17.9419C22.5658 17.8247 22.5 17.6658 22.5 17.5C22.5 17.3342 22.5658 17.1753 22.6831 17.0581C22.8003 16.9408 22.9592 16.875 23.125 16.875ZM23.125 19.375H24.375C24.5408 19.375 24.6997 19.4408 24.8169 19.5581C24.9342 19.6753 25 19.8342 25 20C25 20.1658 24.9342 20.3247 24.8169 20.4419C24.6997 20.5592 24.5408 20.625 24.375 20.625H23.125C22.9592 20.625 22.8003 20.5592 22.6831 20.4419C22.5658 20.3247 22.5 20.1658 22.5 20C22.5 19.8342 22.5658 19.6753 22.6831 19.5581C22.8003 19.4408 22.9592 19.375 23.125 19.375ZM20.625 16.875C20.7908 16.875 20.9497 16.9408 21.0669 17.0581C21.1842 17.1753 21.25 17.3342 21.25 17.5C21.25 17.6658 21.1842 17.8247 21.0669 17.9419C20.9497 18.0592 20.7908 18.125 20.625 18.125H19.375C19.2092 18.125 19.0503 18.0592 18.9331 17.9419C18.8158 17.8247 18.75 17.6658 18.75 17.5C18.75 17.3342 18.8158 17.1753 18.9331 17.0581C19.0503 16.9408 19.2092 16.875 19.375 16.875H20.625ZM21.25 20C21.25 20.1658 21.1842 20.3247 21.0669 20.4419C20.9497 20.5592 20.7908 20.625 20.625 20.625H19.375C19.2092 20.625 19.0503 20.5592 18.9331 20.4419C18.8158 20.3247 18.75 20.1658 18.75 20C18.75 19.8342 18.8158 19.6753 18.9331 19.5581C19.0503 19.4408 19.2092 19.375 19.375 19.375H20.625C20.7908 19.375 20.9497 19.4408 21.0669 19.5581C21.1842 19.6753 21.25 19.8342 21.25 20ZM16.25 13.125H19.375V14.375H16.25V13.125ZM15.625 16.875H16.875C17.0408 16.875 17.1997 16.9408 17.3169 17.0581C17.4342 17.1753 17.5 17.3342 17.5 17.5C17.5 17.6658 17.4342 17.8247 17.3169 17.9419C17.1997 18.0592 17.0408 18.125 16.875 18.125H15.625C15.4592 18.125 15.3003 18.0592 15.1831 17.9419C15.0658 17.8247 15 17.6658 15 17.5C15 17.3342 15.0658 17.1753 15.1831 17.0581C15.3003 16.9408 15.4592 16.875 15.625 16.875ZM15.625 19.375H16.875C17.0408 19.375 17.1997 19.4408 17.3169 19.5581C17.4342 19.6753 17.5 19.8342 17.5 20C17.5 20.1658 17.4342 20.3247 17.3169 20.4419C17.1997 20.5592 17.0408 20.625 16.875 20.625H15.625C15.4592 20.625 15.3003 20.5592 15.1831 20.4419C15.0658 20.3247 15 20.1658 15 20C15 19.8342 15.0658 19.6753 15.1831 19.5581C15.3003 19.4408 15.4592 19.375 15.625 19.375ZM27.5 25H12.5V23.125H27.5V25Z" fill="#B320D8"/>
</svg>
