<svg width="60" height="60" viewBox="0 0 60 60" fill="none" xmlns="http://www.w3.org/2000/svg">
<rect width="60" height="60" rx="30" fill="#276EF1"/>
<path fill-rule="evenodd" clip-rule="evenodd" d="M34.0488 36.0402C32.1451 37.4425 29.7819 38.0738 27.4325 37.8076C25.0831 37.5413 22.9211 36.3971 21.3796 34.6043C19.8381 32.8114 19.031 30.5024 19.1199 28.1396C19.2088 25.7769 20.1873 23.535 21.8592 21.8631C23.5311 20.1912 25.7729 19.2128 28.1357 19.1238C30.4984 19.0349 32.8075 19.842 34.6004 21.3835C36.3932 22.925 37.5374 25.087 37.8037 27.4364C38.0699 29.7858 37.4386 32.149 36.0363 34.0527L41.2019 39.2164C41.34 39.3452 41.4509 39.5004 41.5277 39.6729C41.6046 39.8454 41.6459 40.0316 41.6492 40.2204C41.6526 40.4093 41.6178 40.5968 41.5471 40.7719C41.4764 40.947 41.3711 41.1061 41.2376 41.2396C41.104 41.3731 40.945 41.4784 40.7699 41.5491C40.5948 41.6199 40.4072 41.6546 40.2184 41.6513C40.0296 41.6479 39.8434 41.6066 39.6709 41.5298C39.4984 41.4529 39.3431 41.3421 39.2144 41.2039L34.0488 36.0402ZM35.0519 28.4914C35.0519 30.2319 34.3605 31.9011 33.1298 33.1318C31.8991 34.3625 30.2299 35.0539 28.4894 35.0539C26.7489 35.0539 25.0797 34.3625 23.849 33.1318C22.6183 31.9011 21.9269 30.2319 21.9269 28.4914C21.9269 26.7509 22.6183 25.0817 23.849 23.851C25.0797 22.6203 26.7489 21.9289 28.4894 21.9289C30.2299 21.9289 31.8991 22.6203 33.1298 23.851C34.3605 25.0817 35.0519 26.7509 35.0519 28.4914Z" fill="white"/>
</svg>
